<svg xmlns="http://www.w3.org/2000/svg" xmlns:xlink="http://www.w3.org/1999/xlink" preserveAspectRatio="xMidYMid meet" version="1.0" viewBox="0.0 1.0 379.1 601.2" zoomAndPan="magnify" style="fill: rgb(0, 0, 0);" role="img" aria-label="Happy Curly Man Illustration " width="379.1"  height="601.2" ><g><g id="__id1854_sx6n05jrez" style="" fill="#FFFFFF"><path d="M1,160c0.8-3.7,0.8-7.3,0-11C1,152.7,1,156.3,1,160z" style="" fill="#FFFFFF"></path><path d="M342.2,276c-3.3-5.6-7.7-7.8-14-7.2c-4.3,0.4-7.5,2.4-10.1,5.7c-4.8,6.1-7.5,13.3-10.9,20.2 c-1,2.1-2.2,4.1-4.8,3.1c-3-1.2-2.5-3.8-1.1-5.9c2.3-3.5,2.4-6.8,0.6-10.5c-0.7-1.4-0.8-3.2-1-4.9c-1-9.7,0.1-19.2,2.8-28.6 c0.5-1.6,1.7-3.3,0.2-5.2c-6.8-8.1-9.4-18-10.1-28.2c-0.5-7-1.5-11.8-9.9-11.5c-2,0.1-4.1-1.3-6-2.3c-9.6-4.8-17.7-11.2-22.9-20.8 c-1-1.8-1.5-3.9-4.5-1.1c-18,17.2-47.9,16.5-65.4-1.2c-2.3-2.4-4.4-6.5-6.9-6.7c-3.1-0.3-5.1,4.2-7.6,6.4 c-12.4,10.9-28.2,11-40.8,0.2c-1.9-1.6-3.7-3.3-6.2-5.4c-5,13.8-10.8,26.4-17.8,38.6c-3.2,5.7-6.9,11-12.2,15 c-2.5,1.9-5.1,3.9-8.6,3.5c-3.5-0.5-3.4,1.1-2.6,3.6c2.7,9.2,3.1,18.7,2.4,28.2c-0.4,6.3-1.7,12.4-8.8,14.8 c-1.2,0.4-1.5,1-1.1,2.2c0.6,1.7,0.3,3.4-1.6,4.2c-2,0.8-3.5-0.3-4.7-1.9c-2.2-2.9-4.4-5.9-7.2-8.3c-4.1-3.4-8.9-2.8-13.1,0.2 c-6.4,4.6-7.4,11.6-8.9,18.2c-7,30.3,8.7,56,38.2,63.2c5.2,1.3,10.5,1.7,15.9,1.7c4.3,0,7,1.9,8.9,5.9c4.4,9.5,9.6,18.6,15.1,27.5 c15.8,25.3,39.4,38.8,68.2,41.5c31.7,3,58.5-8,78-34.3c7.4-10,12.8-21,18.3-32c2.1-4.3,5.2-6.5,10-6.9c4.3-0.3,8.6-1.2,12.8-2 C343.9,347.4,361.9,309.1,342.2,276z M72.3,324.5c-4.7,4.7-14.6,2.4-18.4-4.2c-2.2-4-3.1-8.4-2.9-14.8c0.6-4.3,1.3-10.4,2.2-16.5 c0.3-2,1.2-4.1,3.8-3.8c2.8,0.3,3.3,2.5,2.9,4.9c-0.9,5.8-1.9,11.5-2,17.3c-0.1,2.9,0.2,5.7,1.3,8.3c1.4,3.4,3.9,5,7.5,4.2 c2.1-0.5,2.8-5.8,1.1-8.5c-1-1.5-2.5-2.6-3.7-4c-1.1-1.2-1.4-2.6-0.4-4.1c1.2-1.6,2.7-1.6,4.4-0.9C75.3,305.6,77.8,319,72.3,324.5 z M182.3,290.8c1.6-3.1,1.4-6.8,1.2-10.3c-0.2-2.8-0.3-5.6-0.5-8.5c-0.2-2.2,0.3-4.2,2.7-4.6c2.8-0.4,3.7,1.8,3.9,4.1 c0.3,3,0.4,6,0.6,9c0.1,4.2,0.5,8.5-1.5,12.3c-4.3,8.1-3.5,16.2-1,24.6c0.8,2.8,3.6,7.3-1.2,8.5c-5.4,1.4-4.3-4.2-5.3-7.1 C178.1,309.4,177.5,300.1,182.3,290.8z M146,271.8c-1.3,3.1-3.4,5.4-7.1,5.3c-3.9-0.1-6.1-2.5-6.9-6.1c-1.4-5.4-1.1-11,0.3-16.3 c0.9-3.6,3.7-6.5,7.5-6c3.7,0.5,6.7,3,7.1,7.3c0.2,2.2,0.2,4.3,0.3,6.1C147.1,265.6,147.3,268.8,146,271.8z M156.1,209.8 c-0.5,2.6-2.7,2.9-4.7,2.2c-13.8-4.8-26.8-2.1-39.5,4c-2,1-4,0.9-5-1.5c-0.9-2.3,0.5-3.7,2.5-4.7c8.5-4,17.2-7,24.5-7.1 c8,0,13.4,1.3,18.9,2.9C154.9,206.3,156.6,207.3,156.1,209.8z M224.3,363.7c-10,4.3-20.2,7.9-25.7,7.9 c-16.8-0.2-27.1-3.6-36.5-9.8c-2-1.3-4.3-2.8-2.7-5.5c1.6-2.7,4-1.7,6.1-0.3c17.4,11.8,35.3,10.7,53.7,2.7c0.8-0.3,1.5-0.7,2.3-1 c2.5-1.1,5.5-3.4,7.2,0.6C230.1,361.8,226.6,362.7,224.3,363.7z M245.6,267.1c-0.9,3.6-3.5,5.6-7.2,5.7c-3.5,0.1-5.3-2.2-6.5-5.2 c-1.2-3-1.8-6-1.7-10.5c0.2-1.2,0.3-3.7,0.9-6.1c1-3.8,3.7-5.8,7.6-6.1c4-0.4,5.6,2.3,6.6,5.5C247.1,256,247,261.5,245.6,267.1z M271.2,213.1c-1.2,3-3.7,2.1-5.9,1.1c-13.7-6.5-27.8-7.3-42.3-3.6c-2.5,0.6-5,0.7-5.7-2.2c-0.7-3,1.9-3.8,4.3-4.4 c6-1.4,12.1-2.4,18.5-2.2c9.7-0.4,18.9,2.1,27.8,6.2C270,209,272.4,210.1,271.2,213.1z M329.6,320.9c-3.6,4.9-9.1,6.6-14,4.3 c-4.2-2-6.2-7.8-4.8-13.5c0.9-3.4,3.2-5.8,5.9-7.8c1.5-1.1,3.1-1.4,4.5,0.1c1.6,1.6,1.2,3.3-0.3,4.8c-1.6,1.7-3.7,3-3.8,5.6 c-0.1,1.7-0.1,3.6,1.5,4.4c1.9,1,3.6,0.1,4.9-1.4c2.5-2.9,3.6-6.3,3.1-10.2c-0.7-5.9-1.4-11.9-2.3-17.8c-0.3-2.5-0.2-5,2.8-5.4 c2.7-0.4,3.5,1.9,3.9,4.2c0.3,1.8,0.6,3.6,0.9,5.4c0.5,4.3,1,8.6,1.4,12.9C333.8,311.9,332.7,316.6,329.6,320.9z" style="" fill="#FFFFFF"></path><path d="M240.9,425.5c-32.3,16.4-64.4,16.3-95.9-1.7c0,19.1-0.3,37.7,0.1,56.3c0.6,30.5,1.7,61,2.4,91.4 c0.1,5.1,2.4,8.2,6.3,11.1c15.5,11.5,33.2,12.8,51.4,11.8c8.6-0.5,16.6-3.5,24.1-7.7c5.7-3.1,9.1-7.7,9.2-14.8 c0.9-48.1,2.2-96.3,3.3-144.4C241.7,426.8,242.1,425.9,240.9,425.5z" style="" fill="#FFFFFF"></path></g><g id="__id1855_sx6n05jrez" style="fill: rgb(0, 0, 0);"><path d="M377.9,192.1c-1.5-14.6-9.7-25.5-19.7-35.4c-2.2-2.2-4.8-3.9-7.8-4.1c-4.7-0.3-4.3-2.8-3-5.9 c3-7.1,4.4-14.6,5.7-22.1c3.4-20.6-2.9-38.7-16.7-53.3c-23.9-25.4-53-37.4-88.2-28.3c-4.6,1.2-6.4,0.3-8.5-4 c-10.9-21.3-28-34.2-52.2-36.9C186.5,2,185.3,2.4,185,1c-4,0-8,0-12,0c-3.8,2.8-8.4,1.9-12.7,2.8C135.4,9,113.5,19,97.2,39.7 c-8.3,10.6-12,22-11.1,35.2c0.2,3.5-0.4,4.6-4.1,4.3c-21.3-1.8-38.2,8.3-53.7,21.2c-13.2,10.9-22.7,24.2-25.8,41.5 c-0.2,0.9-0.1,2.1-1.5,2.2c0,1.7,0,3.3,0,5c0.8,3.7,0.8,7.3,0,11c0,2.3,0,4.7,0,7c2,0.6,1.4,2.4,1.7,3.7 c1.9,10.9,4.8,21.4,11.3,30.6c1.2,1.7,0.5,2.6-0.3,3.9c-13.7,23.4-6.1,49.6,18,61.9c7.1,3.6,7.1,3.6,4.3,11.1 c-10,26.6-4.5,52.4,15,69.5c11.5,10,25.4,13.4,40.2,14.1c3.3,0.1,4.9,1.2,6.3,4.2c5.5,11.4,11.7,22.4,19,32.8 c4.9,6.9,10.5,13,17.4,17.8c2.3,1.6,3.2,3.2,3.3,6.1c1.2,50,2,100,3.8,149.9c0.2,6.1,2.5,10.5,7.2,14c9.8,7.3,20.4,12.6,32.7,13.7 c1.8,0.2,4-0.4,5.2,1.8c6.3,0,12.7,0,19,0c3.8-2,8.2-1.6,12.2-3c9.3-3.3,18.7-6.2,24.6-15c2-3,3.1-6,3.2-9.7 c1-49.9,2.2-99.9,3.3-149.8c0-2-0.1-3.8,1.9-5.2c13.7-9.9,22.8-23.6,30.6-38.2c2.9-5.4,4.6-12.1,8.9-16c4.2-3.8,11.4-2.2,17.2-3.7 c4.7-1.2,9.3-2.3,13.8-4.3c27.9-12.2,39.7-34.6,33.9-64.6c-1.3-6.7-2.9-13.3-6.5-19.2c-1-1.7-0.8-2.5,1-3.4c3.1-1.5,6.2-3.2,9.2-5 c11.5-7.1,14.9-18.9,9.1-31.1c-0.8-1.6-1.4-2.7-0.2-4.4c5.4-7.7,9.5-16,10.8-25.5c0-0.3,0.7-0.6,1-0.8c0-3,0-6,0-9 C377.9,193.8,378,192.9,377.9,192.1z M241.7,427.5c-1.1,48.1-2.3,96.3-3.3,144.4c-0.1,7.1-3.5,11.6-9.2,14.8 c-7.5,4.2-15.4,7.2-24.1,7.7c-18.2,1-36-0.3-51.4-11.8c-3.9-2.9-6.2-6-6.3-11.1c-0.7-30.5-1.8-61-2.4-91.4 c-0.4-18.6-0.1-37.3-0.1-56.3c31.5,18,63.6,18.1,95.9,1.7C242.1,425.9,241.7,426.8,241.7,427.5z M305,354.9 c-4.2,0.8-8.5,1.7-12.8,2c-4.9,0.4-7.9,2.6-10,6.9c-5.5,11-10.9,22.1-18.3,32c-19.5,26.3-46.3,37.3-78,34.3 c-28.8-2.7-52.4-16.2-68.2-41.5c-5.6-8.9-10.7-18-15.1-27.5c-1.9-4-4.5-5.9-8.9-5.9c-5.3,0-10.7-0.5-15.9-1.7 c-29.5-7.2-45.2-32.9-38.2-63.2c1.5-6.7,2.5-13.6,8.9-18.2c4.2-3,9-3.6,13.1-0.2c2.9,2.4,5,5.3,7.2,8.3c1.2,1.6,2.6,2.7,4.7,1.9 c1.9-0.7,2.2-2.4,1.6-4.2c-0.4-1.2-0.1-1.8,1.1-2.2c7.1-2.4,8.4-8.5,8.8-14.8c0.7-9.5,0.2-19-2.4-28.2c-0.7-2.6-0.8-4.1,2.6-3.6 c3.4,0.5,6-1.5,8.6-3.5c5.2-4,8.9-9.4,12.2-15c6.9-12.1,12.8-24.8,17.8-38.6c2.4,2.1,4.3,3.8,6.2,5.4 c12.5,10.8,28.4,10.6,40.8-0.2c2.6-2.3,4.6-6.8,7.6-6.4c2.5,0.3,4.6,4.4,6.9,6.7c17.4,17.8,47.4,18.4,65.4,1.2 c2.9-2.8,3.5-0.7,4.5,1.1c5.2,9.6,13.3,16.1,22.9,20.8c1.9,1,4,2.4,6,2.3c8.4-0.3,9.4,4.5,9.9,11.5c0.7,10.1,3.3,20,10.1,28.2 c1.5,1.8,0.3,3.6-0.2,5.2c-2.7,9.4-3.9,18.9-2.8,28.6c0.2,1.6,0.3,3.4,1,4.9c1.8,3.7,1.7,7-0.6,10.5c-1.3,2-1.8,4.7,1.1,5.9 c2.7,1.1,3.8-1,4.8-3.1c3.4-6.9,6.1-14,10.9-20.2c2.6-3.3,5.7-5.3,10.1-5.7c6.3-0.6,10.7,1.6,14,7.2 C361.9,309.1,343.9,347.4,305,354.9z" style="fill: inherit;"></path><path d="M221.4,357.7c-0.8,0.3-1.5,0.7-2.3,1c-18.3,7.9-36.3,9.1-53.7-2.7c-2-1.4-4.5-2.4-6.1,0.3 c-1.6,2.7,0.7,4.2,2.7,5.5c9.4,6.2,19.7,9.6,36.5,9.8c5.6,0,15.7-3.6,25.7-7.9c2.3-1,5.8-1.9,4.3-5.5 C226.9,354.3,223.9,356.6,221.4,357.7z" style="fill: inherit;"></path><path d="M68.1,302.4c-1.7-0.8-3.2-0.7-4.4,0.9c-1.1,1.4-0.7,2.9,0.4,4.1c1.2,1.4,2.7,2.5,3.7,4 c1.7,2.7,1,8.1-1.1,8.5c-3.6,0.8-6.1-0.9-7.5-4.2c-1.1-2.7-1.4-5.5-1.3-8.3c0.2-5.8,1.2-11.6,2-17.3c0.4-2.4-0.1-4.5-2.9-4.9 c-2.5-0.3-3.5,1.8-3.8,3.8c-0.9,6.1-1.6,12.2-2.2,16.5c-0.2,6.4,0.7,10.8,2.9,14.8c3.7,6.7,13.7,8.9,18.4,4.2 C77.8,319,75.3,305.6,68.1,302.4z" style="fill: inherit;"></path><path d="M331.9,293.9c-0.2-1.8-0.6-3.6-0.9-5.4c-0.3-2.3-1.1-4.6-3.9-4.2c-3,0.4-3.2,2.8-2.8,5.4 c0.8,5.9,1.5,11.9,2.3,17.8c0.5,3.8-0.6,7.2-3.1,10.2c-1.3,1.5-3,2.3-4.9,1.4c-1.7-0.9-1.6-2.8-1.5-4.4c0.1-2.6,2.2-3.9,3.8-5.6 c1.4-1.5,1.8-3.2,0.3-4.8c-1.4-1.5-3-1.2-4.5-0.1c-2.7,2-5,4.4-5.9,7.8c-1.5,5.6,0.6,11.5,4.8,13.5c4.9,2.3,10.3,0.6,14-4.3 c3.1-4.2,4.3-8.9,3.8-14.1C332.9,302.4,332.4,298.1,331.9,293.9z" style="fill: inherit;"></path><path d="M186.5,325.9c4.8-1.3,2-5.8,1.2-8.5c-2.5-8.4-3.3-16.4,1-24.6c2-3.7,1.6-8.1,1.5-12.3c-0.2-3-0.3-6-0.6-9 c-0.2-2.3-1.1-4.5-3.9-4.1c-2.5,0.3-2.9,2.4-2.7,4.6c0.2,2.8,0.3,5.6,0.5,8.5c0.2,3.5,0.4,7.2-1.2,10.3c-4.8,9.2-4.2,18.6-1.1,28 C182.2,321.7,181.2,327.4,186.5,325.9z" style="fill: inherit;"></path><path d="M238.7,245c-3.9,0.4-6.6,2.4-7.6,6.1c-0.6,2.4-0.8,4.9-0.9,6.1c-0.1,4.5,0.5,7.5,1.7,10.5 c1.2,3,3.1,5.3,6.5,5.2c3.7-0.1,6.3-2.1,7.2-5.7c1.4-5.6,1.5-11.1-0.3-16.6C244.2,247.2,242.7,244.6,238.7,245z" style="fill: inherit;"></path><path d="M139.8,248.6c-3.9-0.5-6.6,2.4-7.5,6c-1.4,5.3-1.6,10.9-0.3,16.3c0.9,3.6,3.1,5.9,6.9,6.1 c3.7,0.1,5.8-2.2,7.1-5.3c1.3-3,1-6.2,1.2-9.7c-0.1-1.8-0.2-4-0.3-6.1C146.5,251.6,143.5,249.1,139.8,248.6z" style="fill: inherit;"></path><path d="M267.8,208c-8.9-4.1-18.1-6.6-27.8-6.2c-6.4-0.2-12.4,0.9-18.5,2.2c-2.4,0.5-5,1.4-4.3,4.4 c0.6,2.9,3.1,2.9,5.7,2.2c14.5-3.7,28.7-2.9,42.3,3.6c2.2,1.1,4.7,1.9,5.9-1.1C272.4,210.1,270,209,267.8,208z" style="fill: inherit;"></path><path d="M152.8,205.7c-5.4-1.6-10.9-2.9-18.9-2.9c-7.3,0.1-16,3.2-24.5,7.1c-2,1-3.4,2.3-2.5,4.7 c0.9,2.4,3,2.5,5,1.5c12.7-6.2,25.7-8.8,39.5-4c2,0.7,4.2,0.4,4.7-2.2C156.6,207.3,154.9,206.3,152.8,205.7z" style="fill: inherit;"></path></g></g></svg>